# xmcd CD database file
#
# Track frame offsets:
#	182
#	22662
#	39190
#	56170
#	69015
#	85157
#	106017
#	126095
#	142232
#	146645
#
# Disc length: 2139 seconds
#
# Revision: 2
# Processed by: cddbd v1.5PL3 Copyright (c) Steve Scherf et al.
# Submitted via: CDex 1.51
#
DISCID=7d08590a
DTITLE=Alexis Korner - Me
DYEAR=1986
DGENRE=Blues
TTITLE0=Honky Tonk Woman
TTITLE1=Louise
TTITLE2=Hammer And Nails
TTITLE3=Santa F  Blues
TTITLE4=How Long Blues
TTITLE5=Roberta
TTITLE6=Precious Lord
TTITLE7=Honour The Young Man
TTITLE8=And Again
TTITLE9=East St. Louis Blues
EXTD=YEAR: 1986
EXTT0=
EXTT1=
EXTT2=
EXTT3=
EXTT4=
EXTT5=
EXTT6=
EXTT7=
EXTT8=
EXTT9=
PLAYORDER=
